# xmcd CD database file
#
# Track frame offsets:
#	150
#	15617
#	44880
#	60997
#	88637
#	103447
#	116225
#	139720
#
# Disc length: 2155 seconds
#
# Revision: 0
# Processed by: cddbd v1.4PL0 Copyright (c) Steve Scherf et al.
# Submitted via: CDex 1.50Beta3
#
DISCID=71086908
DTITLE=Copa Salvo - Copa Salvo
DYEAR=2002
DGENRE=Jazz
TTITLE0=Mindful
TTITLE1=Passing Me By
TTITLE2=A La Vera Del Rio
TTITLE3=Wave
TTITLE4=Imperador Do Samba
TTITLE5=The Deserted Town
TTITLE6=Accept It All
TTITLE7=Moonlight And Shade
EXTD=YEAR: 2002
EXTT0=
EXTT1=
EXTT2=
EXTT3=
EXTT4=
EXTT5=
EXTT6=
EXTT7=
PLAYORDER=
